<svg xmlns="http://www.w3.org/2000/svg" width="150" height="21" fill="none"><path fill="#FF0420" d="M7.574 20.198c-2.225 0-4.049-.524-5.47-1.571C.7 17.56 0 16.046 0 14.082c0-.411.047-.916.14-1.515.243-1.346.59-2.964 1.038-4.853C2.45 2.571 5.732 0 11.024 0c1.44 0 2.73.243 3.872.73 1.14.467 2.038 1.178 2.693 2.131.654.935.982 2.057.982 3.367 0 .392-.047.888-.14 1.486a63.618 63.618 0 0 1-1.01 4.853c-.655 2.563-1.787 4.48-3.395 5.751-1.608 1.253-3.759 1.88-6.452 1.88Zm.393-4.04c1.047 0 1.935-.309 2.665-.926.748-.617 1.28-1.561 1.599-2.833.43-1.758.757-3.291.982-4.6.074-.393.112-.795.112-1.207 0-1.702-.889-2.552-2.665-2.552-1.047 0-1.945.308-2.693.925-.73.617-1.253 1.562-1.571 2.833-.337 1.253-.673 2.787-1.01 4.601a5.998 5.998 0 0 0-.112 1.178c0 1.72.897 2.581 2.693 2.581ZM21.417 19.917c-.206 0-.365-.065-.477-.196a.671.671 0 0 1-.084-.505L24.727.982a.803.803 0 0 1 .309-.505.855.855 0 0 1 .533-.196h7.462c2.075 0 3.74.43 4.993 1.29 1.271.86 1.907 2.104 1.907 3.73 0 .468-.056.955-.168 1.46-.468 2.15-1.412 3.74-2.833 4.768-1.403 1.029-3.33 1.543-5.779 1.543h-3.787l-1.29 6.144a.803.803 0 0 1-.309.505.855.855 0 0 1-.533.196h-3.815Zm9.93-10.716c.786 0 1.468-.215 2.048-.645.599-.43.991-1.047 1.178-1.852.056-.317.085-.598.085-.841 0-.542-.16-.954-.477-1.234-.318-.3-.86-.45-1.627-.45h-3.367l-1.066 5.022h3.226ZM46.252 19.917c-.206 0-.365-.065-.477-.196a.608.608 0 0 1-.112-.505l3.114-14.531h-4.994c-.205 0-.364-.066-.477-.197a.67.67 0 0 1-.084-.505l.645-3.001a.803.803 0 0 1 .309-.505.855.855 0 0 1 .533-.196h15.092c.206 0 .365.065.477.196a.603.603 0 0 1 .112.337.53.53 0 0 1-.028.168l-.645 3.001a.802.802 0 0 1-.309.505.783.783 0 0 1-.533.197H53.91l-3.114 14.53a.803.803 0 0 1-.308.506.855.855 0 0 1-.533.196h-3.703ZM61.106 19.917c-.206 0-.365-.065-.477-.196a.607.607 0 0 1-.112-.505L64.416.982a.803.803 0 0 1 .309-.505.855.855 0 0 1 .532-.196h3.787c.206 0 .365.065.477.196a.603.603 0 0 1 .113.337.53.53 0 0 1-.028.168l-3.872 18.234a.803.803 0 0 1-.308.505.855.855 0 0 1-.533.196h-3.787ZM71.787 19.917c-.205 0-.364-.065-.477-.196-.112-.131-.15-.3-.112-.505L75.07.982a.803.803 0 0 1 .309-.505.892.892 0 0 1 .561-.196h3.03c.449 0 .738.205.87.617l3.057 8.836L89.713.898c.093-.15.224-.29.392-.421.187-.131.412-.196.674-.196h3.057c.206 0 .365.065.477.196a.603.603 0 0 1 .112.337.53.53 0 0 1-.028.168l-3.87 18.234a.803.803 0 0 1-.31.505.855.855 0 0 1-.532.196H86.29c-.206 0-.364-.065-.477-.196a.671.671 0 0 1-.084-.505l2.188-10.352-4.292 5.695a2.971 2.971 0 0 1-.533.477 1.036 1.036 0 0 1-.589.168h-1.459c-.392 0-.663-.215-.813-.645l-1.992-5.947-2.244 10.604a.803.803 0 0 1-.309.505.855.855 0 0 1-.533.196h-3.366ZM96.548 19.917c-.205 0-.364-.065-.477-.196-.112-.15-.15-.318-.112-.505L99.86.982a.803.803 0 0 1 .308-.505.854.854 0 0 1 .533-.196h3.787c.206 0 .365.065.477.196a.601.601 0 0 1 .112.337.521.521 0 0 1-.028.168l-3.871 18.234a.8.8 0 0 1-.309.505.854.854 0 0 1-.533.196h-3.787ZM114.159 20.198c-1.646 0-3.058-.225-4.236-.674-1.16-.448-2.039-1.047-2.637-1.795-.58-.748-.87-1.58-.87-2.497 0-.15.019-.374.056-.673a.844.844 0 0 1 .225-.42.67.67 0 0 1 .449-.169h3.59c.225 0 .393.037.505.112.131.075.262.206.393.393.131.486.43.888.898 1.206.486.318 1.15.477 1.991.477 1.066 0 1.927-.168 2.581-.505.655-.337 1.048-.795 1.178-1.375.019-.074.028-.187.028-.336 0-.468-.289-.832-.869-1.094-.58-.28-1.646-.608-3.198-.982-1.814-.393-3.189-.982-4.124-1.767-.935-.804-1.402-1.852-1.402-3.142 0-.449.056-.907.168-1.375.374-1.739 1.3-3.104 2.777-4.095C113.158.496 115.084 0 117.441 0c1.421 0 2.684.252 3.787.757 1.103.505 1.954 1.15 2.553 1.936.617.767.925 1.534.925 2.3 0 .225-.009.384-.028.477a.753.753 0 0 1-.252.421.572.572 0 0 1-.421.168h-3.759c-.411 0-.692-.159-.841-.477-.019-.43-.244-.794-.674-1.094-.43-.299-.991-.448-1.683-.448-.823 0-1.505.15-2.048.448-.523.3-.851.739-.981 1.319a1.888 1.888 0 0 0-.029.364c0 .45.262.823.786 1.123.542.28 1.487.57 2.833.87 2.095.41 3.619 1 4.573 1.766.972.767 1.458 1.786 1.458 3.058 0 .43-.056.898-.168 1.403-.411 1.907-1.412 3.357-3.002 4.348-1.57.972-3.674 1.459-6.311 1.459ZM127.362 19.917c-.206 0-.365-.065-.477-.196-.112-.131-.15-.3-.112-.505L130.644.982a.799.799 0 0 1 .309-.505.89.89 0 0 1 .561-.196h3.029c.449 0 .739.205.87.617l3.058 8.836 6.816-8.836c.094-.15.225-.29.393-.421.187-.131.411-.196.673-.196h3.058c.206 0 .365.065.477.196a.601.601 0 0 1 .112.337.521.521 0 0 1-.028.168l-3.871 18.234a.808.808 0 0 1-.309.505.854.854 0 0 1-.533.196h-3.394c-.206 0-.365-.065-.477-.196a.666.666 0 0 1-.084-.505l2.188-10.352-4.292 5.695a2.981 2.981 0 0 1-.533.477 1.036 1.036 0 0 1-.589.168h-1.459c-.393 0-.664-.215-.813-.645l-1.992-5.947-2.244 10.604a.808.808 0 0 1-.309.505.854.854 0 0 1-.533.196h-3.366Z"/></svg>