<svg xmlns="http://www.w3.org/2000/svg" width="880" height="317" fill="none"><path fill="#fff" d="M0 0h880v317H0z"/><g clip-path="url(#a)"><path fill="#fff" d="M28 94h129v129H28z"/><path fill="#000" d="M81.391 205.406c-2.58-.43-6.951-1.899-9.675-3.225-2.114-1.004-2.15-1.075-2.15-2.509 0-1.003.395-2.15 1.29-3.762 1.219-2.186 1.326-2.293 2.652-2.293.788 0 2.365.466 3.655 1.075 2.795 1.29 7.31 2.436 10.75 2.723 3.046.251 8.708-.788 12.255-2.222 7.597-3.081 14.083-9.46 17.272-16.985 3.332-7.955 3.476-14.118.43-22.181-2.043-5.375-5.411-9.818-10.284-13.616l-1.935-1.505-.789 1.361-.752 1.362 1.971 1.469c3.941 2.867 7.883 8.815 9.245 13.868.752 2.723.86 11.61.179 14.584-.681 2.938-3.333 8.098-5.626 10.858-7.095 8.564-20.246 11.538-31.354 7.13-2.616-1.039-2.688-1.075-2.795-2.4-.072-.968.179-1.9.824-3.154.537-.967.824-1.863.68-2.006-.178-.144-1.253-.86-2.364-1.613-5.34-3.547-10.464-10.177-13.08-16.877-2.257-5.77-2.436-6.845-2.436-15.051 0-8.313.143-9.209 2.544-15.085 1.935-4.838 4.551-8.815 8.206-12.542 5.698-5.769 12.22-9.353 19.53-10.714 4.944-.932 9.997-1.039 15.013-.394 4.874.645 7.49 1.433 11.18 3.296 2.33 1.147 2.473 1.29 2.473 2.437 0 .752-.538 2.15-1.469 3.762-1.326 2.258-1.613 2.545-2.58 2.545-.609 0-2.079-.466-3.261-1.04-1.218-.609-3.763-1.469-5.733-1.97-12.936-3.369-26.947 3.117-33.827 15.623-1.9 3.512-2.831 6.342-3.512 10.714-.466 3.189-.466 3.942.036 7.059.287 1.899.824 4.3 1.11 5.268.79 2.401 2.832 6.378 4.588 8.779 1.648 2.293 5.733 6.343 7.31 7.274l1.075.609.824-1.325.824-1.291-.896-.573c-1.828-1.182-5.447-4.945-7.023-7.31-5.017-7.525-5.626-19.314-1.434-27.663 2.33-4.659 7.06-9.317 11.718-11.503 4.192-2.006 7.382-2.723 12.362-2.723 4.838-.036 7.776.537 11.467 2.186 2.258 1.039 2.329 1.111 2.329 2.401 0 .824-.394 1.935-1.039 3.01l-1.039 1.72 2.401 1.612c2.759 1.899 7.525 6.701 9.495 9.568 2.258 3.296 4.372 8.134 5.411 12.505.932 3.906.968 4.408.789 10.93-.144 5.948-.287 7.274-1.111 10.248-2.401 8.708-8.17 16.734-15.623 21.679-2.795 1.864-8.529 4.443-12.005 5.411-2.544.681-14.942 1.039-18.096.466Zm12.22-21.106c9.818-3.01 15.766-12.864 13.258-22.002-.43-1.54-1.182-3.511-1.72-4.407-1.182-2.043-3.977-5.089-5.805-6.379-1.828-1.254-1.9-2.293-.394-4.98 1.182-2.115 1.075-2.365-1.04-2.365-2.114 0-5.052 3.26-5.052 5.59 0 1.361 1.541 3.368 3.906 5.16 2.867 2.114 4.336 3.798 5.483 6.306.68 1.505.788 2.401.788 6.056.036 4.014-.036 4.443-1.003 6.522-1.326 2.902-4.014 5.482-6.773 6.486-2.472.931-8.493 1.075-10.75.286l-1.362-.501-.68 1.397c-.395.753-.717 1.434-.717 1.505 0 .179 2.186 1.111 3.762 1.648 1.828.574 5.662.431 8.099-.322Zm-2.115-12.291c1.792-1.075 2.831-2.508 3.046-4.156.251-1.756-.501-3.19-2.615-4.945-3.87-3.19-5.125-4.551-6.271-6.666-1.183-2.185-1.219-2.329-1.219-6.521 0-3.655.108-4.551.789-6.02 1.29-2.795 3.547-5.16 6.163-6.45 2.078-1.004 2.76-1.147 5.84-1.254 2.402-.108 4.05.035 5.376.43 1.039.286 1.899.501 1.899.465.036-.035.43-.68.86-1.397l.788-1.326-1.039-.537c-.537-.287-2.222-.753-3.691-1.004-5.661-1.075-11.036.753-15.551 5.232-4.981 4.981-6.952 10.965-5.34 16.376 1.362 4.586 4.766 9.388 8.027 11.323.932.538 1.075.824 1.075 2.079-.036.895-.358 1.97-.896 2.866-1.075 1.72-1.075 1.864-.25 2.079 1.218.322 1.72.25 3.01-.574Z"/><path fill="#fff" d="M28 158.5V94h129v129H28v-64.5Zm70.412 45.329c3.44-.932 9.21-3.512 12.005-5.375 7.453-4.945 13.258-13.007 15.623-21.679.788-2.795.968-4.443 1.111-9.173.179-5.375.107-6.02-.789-9.855-1.039-4.371-3.153-9.209-5.41-12.505-2.043-2.975-6.737-7.669-9.783-9.747-1.505-1.003-2.795-1.899-2.867-1.935-.071-.072.538-1.254 1.362-2.616.788-1.362 1.469-2.58 1.469-2.723 0-.108-1.039-.717-2.329-1.29-12.183-5.519-27.377-.036-33.397 12.04-3.834 7.632-3.475 17.486.86 24.689 2.222 3.619 7.597 8.815 9.138 8.815.466 0 3.153-4.228 3.153-4.909 0-.179-.466-.609-1.075-.932-1.97-1.182-5.016-4.587-6.235-7.023-1.755-3.44-2.365-5.841-2.365-9.138 0-5.41 1.828-9.603 5.913-13.688 3.26-3.261 6.02-4.658 10.606-5.375 3.046-.502 3.656-.502 6.558.036 2.974.537 5.948 1.648 5.948 2.257 0 .144-.645 1.362-1.397 2.724l-1.398 2.472 2.043 1.362c5.339 3.547 9.352 8.564 11.681 14.476 3.261 8.278 3.154 16.305-.322 24.546-1.684 3.942-4.049 7.346-7.274 10.428-4.694 4.479-9.317 6.844-15.91 8.241-6.271 1.29-13.617.43-19.243-2.185-1.254-.61-2.4-1.075-2.58-1.075-.322 0-2.866 4.371-2.866 4.98 0 .896 7.776 3.978 11.825 4.659 3.01.537 13.365.215 15.945-.502Zm-5.16-11.825c8.744-1.541 15.301-6.45 19.135-14.333.86-1.756 1.756-4.014 2.007-5.017.645-2.759.573-9.962-.143-12.613-1.398-5.268-5.339-11.001-9.639-14.154-1.362-1.004-2.437-1.899-2.437-2.043 0-.143.394-.788.86-1.433 1.326-1.792 1.827-3.154 1.326-3.763-.251-.286-1.434-.788-2.688-1.111-6.378-1.72-12.577 1.219-15.372 7.239-.645 1.361-.788 2.365-.788 4.945 0 2.974.107 3.404 1.218 5.482.752 1.398 1.97 2.903 3.189 3.942 4.372 3.762 5.375 4.873 5.805 6.522 1.433 5.16-3.834 9.782-8.743 7.74l-1.219-.502-1.648 2.652-1.648 2.687 1.684.753c2.687 1.182 7.202 1.29 9.962.25 2.83-1.075 5.518-3.583 6.844-6.521.895-1.935 1.039-2.616 1.003-5.447-.036-5.017-1.613-7.847-6.27-11.287-2.867-2.15-3.907-3.799-3.907-6.235 0-2.401.932-4.408 2.616-5.626 1.183-.86 1.792-1.039 3.512-1.039 2.007 0 3.906.537 3.906 1.111 0 .143-.645 1.361-1.398 2.723l-1.397 2.436.931.717c6.164 4.587 8.959 10.248 8.564 17.558-.215 4.336-1.039 6.916-3.26 9.962-2.007 2.831-3.44 4.193-6.128 5.805-5.339 3.189-11.932 3.619-17.737 1.147-.681-.287-1.362-.645-1.505-.789-.144-.143.322-1.254 1.003-2.472.68-1.254 1.218-2.508 1.218-2.795 0-.287-.931-1.147-2.042-1.899-5.053-3.369-9.854-9.675-11.933-15.767-.358-1.075-.967-3.762-1.29-5.948-.537-3.369-.537-4.479-.179-7.418.61-4.945 1.29-7.31 3.19-11.108 4.3-8.564 11.466-14.369 20.675-16.734 6.809-1.756 15.193-1.039 21.285 1.863 1.111.538 2.114.968 2.258 1.003.25 0 3.153-4.658 3.153-5.052 0-.287-5.017-2.652-7.095-3.333-6.701-2.257-17.666-2.114-24.33.323-5.698 2.114-10.32 5.088-14.62 9.46-3.656 3.727-6.272 7.704-8.207 12.542-2.329 5.733-2.544 6.88-2.544 14.01 0 7.024.251 8.385 2.437 13.975 2.687 6.88 7.811 13.438 13.545 17.236 1.361.896 2.544 1.756 2.651 1.971.144.179-.394 1.469-1.11 2.831-.753 1.469-1.183 2.652-1.004 2.831.645.573 5.411 2.257 7.669 2.723 3.153.645 5.088.645 8.635 0Z"/></g><path fill="#000" d="M193.182 158.727c0 5.015-.94 9.311-2.818 12.887-1.864 3.56-4.409 6.288-7.637 8.181-3.212 1.894-6.856 2.841-10.932 2.841-4.075 0-7.727-.947-10.954-2.841-3.212-1.909-5.758-4.643-7.636-8.204-1.864-3.576-2.796-7.864-2.796-12.864 0-5.015.932-9.303 2.796-12.863 1.878-3.576 4.424-6.311 7.636-8.205 3.227-1.894 6.879-2.841 10.954-2.841 4.076 0 7.72.947 10.932 2.841 3.228 1.894 5.773 4.629 7.637 8.205 1.878 3.56 2.818 7.848 2.818 12.863Zm-8.477 0c0-3.53-.553-6.507-1.66-8.932-1.09-2.439-2.606-4.28-4.545-5.522-1.939-1.258-4.174-1.887-6.705-1.887-2.53 0-4.765.629-6.704 1.887-1.939 1.242-3.462 3.083-4.568 5.522-1.091 2.425-1.637 5.402-1.637 8.932 0 3.531.546 6.515 1.637 8.955 1.106 2.424 2.629 4.265 4.568 5.523 1.939 1.242 4.174 1.863 6.704 1.863 2.531 0 4.766-.621 6.705-1.863 1.939-1.258 3.455-3.099 4.545-5.523 1.107-2.44 1.66-5.424 1.66-8.955Zm16.085 36.364v-48h8.091v5.773h.477c.424-.849 1.023-1.75 1.795-2.705.773-.97 1.819-1.795 3.137-2.477 1.318-.697 3-1.046 5.045-1.046 2.697 0 5.129.69 7.296 2.069 2.182 1.363 3.909 3.386 5.181 6.068 1.288 2.666 1.932 5.939 1.932 9.818 0 3.833-.628 7.091-1.886 9.773-1.258 2.681-2.97 4.727-5.136 6.136-2.167 1.409-4.622 2.114-7.364 2.114-2 0-3.659-.334-4.977-1-1.318-.667-2.379-1.47-3.182-2.409-.788-.955-1.402-1.857-1.841-2.705h-.341v18.591h-8.227Zm8.068-30.546c0 2.258.318 4.235.954 5.932.652 1.697 1.584 3.023 2.796 3.978 1.227.939 2.712 1.409 4.454 1.409 1.819 0 3.341-.485 4.569-1.455 1.227-.985 2.151-2.326 2.772-4.023.637-1.712.955-3.659.955-5.841 0-2.166-.311-4.09-.932-5.772-.621-1.682-1.545-3-2.773-3.955-1.227-.954-2.757-1.432-4.591-1.432-1.757 0-3.25.462-4.477 1.387-1.227.924-2.159 2.219-2.795 3.886-.621 1.667-.932 3.629-.932 5.886Zm47.386 18.137c-3.5 0-6.522-.727-9.068-2.182-2.53-1.47-4.477-3.545-5.841-6.227-1.363-2.697-2.045-5.871-2.045-9.523 0-3.591.682-6.742 2.045-9.455 1.379-2.727 3.303-4.848 5.773-6.363 2.47-1.53 5.371-2.296 8.704-2.296 2.152 0 4.182.349 6.091 1.046a13.75 13.75 0 0 1 5.091 3.182c1.485 1.439 2.652 3.272 3.5 5.5.849 2.212 1.273 4.848 1.273 7.909v2.522h-28.614v-5.545h20.728c-.015-1.576-.356-2.977-1.023-4.205a7.44 7.44 0 0 0-2.796-2.931c-1.181-.712-2.56-1.069-4.136-1.069-1.682 0-3.159.41-4.432 1.228a8.455 8.455 0 0 0-2.977 3.182c-.697 1.303-1.053 2.734-1.068 4.295v4.841c0 2.03.371 3.773 1.113 5.227.743 1.44 1.781 2.546 3.114 3.318 1.333.758 2.894 1.137 4.682 1.137 1.197 0 2.28-.167 3.25-.5a7.213 7.213 0 0 0 2.523-1.523c.712-.667 1.25-1.492 1.613-2.477l7.682.863c-.485 2.031-1.409 3.803-2.773 5.319-1.348 1.5-3.075 2.666-5.181 3.5-2.106.818-4.516 1.227-7.228 1.227Zm30.711-21.137V182h-8.228v-34.909h7.864v5.932H287c.803-1.955 2.083-3.508 3.841-4.659 1.773-1.152 3.962-1.728 6.568-1.728 2.409 0 4.508.516 6.296 1.546 1.803 1.03 3.197 2.523 4.181 4.477 1 1.955 1.493 4.326 1.478 7.114V182h-8.228v-20.955c0-2.333-.606-4.159-1.818-5.477-1.197-1.318-2.856-1.977-4.977-1.977-1.439 0-2.72.318-3.841.954-1.106.622-1.977 1.523-2.614 2.705-.621 1.182-.931 2.614-.931 4.295Zm72.306-13.295c-.212-1.985-1.106-3.53-2.681-4.636-1.561-1.106-3.591-1.659-6.091-1.659-1.758 0-3.266.265-4.523.795-1.258.53-2.22 1.25-2.886 2.159-.667.909-1.008 1.947-1.023 3.114 0 .969.22 1.81.659 2.522.454.713 1.068 1.319 1.841 1.819.773.484 1.629.894 2.568 1.227.939.333 1.886.614 2.841.841l4.364 1.091c1.757.409 3.447.962 5.068 1.659a17.886 17.886 0 0 1 4.386 2.636 11.71 11.71 0 0 1 3.091 3.841c.758 1.5 1.136 3.258 1.136 5.273 0 2.727-.697 5.129-2.091 7.204-1.393 2.061-3.409 3.675-6.045 4.841-2.621 1.152-5.795 1.728-9.523 1.728-3.621 0-6.765-.561-9.432-1.682-2.651-1.121-4.727-2.758-6.227-4.909-1.485-2.152-2.288-4.773-2.409-7.864h8.296c.121 1.621.621 2.97 1.5 4.045.878 1.076 2.022 1.879 3.431 2.41 1.425.53 3.016.795 4.773.795 1.833 0 3.439-.273 4.818-.818 1.394-.561 2.485-1.334 3.273-2.318.788-1 1.189-2.167 1.205-3.5-.016-1.212-.372-2.212-1.069-3-.697-.803-1.674-1.47-2.931-2-1.243-.546-2.697-1.031-4.364-1.455l-5.296-1.364c-3.833-.984-6.863-2.477-9.09-4.477-2.213-2.015-3.319-4.689-3.319-8.023 0-2.742.743-5.143 2.228-7.204 1.5-2.061 3.538-3.659 6.113-4.796 2.576-1.151 5.493-1.727 8.75-1.727 3.303 0 6.197.576 8.682 1.727 2.5 1.137 4.462 2.72 5.886 4.75 1.425 2.016 2.16 4.334 2.205 6.955h-8.114Zm31.131 34.432c-3.409 0-6.364-.75-8.864-2.25-2.5-1.5-4.439-3.599-5.818-6.296-1.363-2.697-2.045-5.848-2.045-9.454 0-3.606.682-6.765 2.045-9.477 1.379-2.713 3.318-4.819 5.818-6.319 2.5-1.5 5.455-2.25 8.864-2.25 3.409 0 6.364.75 8.864 2.25 2.5 1.5 4.432 3.606 5.795 6.319 1.379 2.712 2.068 5.871 2.068 9.477s-.689 6.757-2.068 9.454c-1.363 2.697-3.295 4.796-5.795 6.296s-5.455 2.25-8.864 2.25Zm.046-6.591c1.848 0 3.393-.508 4.636-1.523 1.242-1.03 2.167-2.409 2.773-4.136.621-1.727.931-3.652.931-5.773 0-2.136-.31-4.068-.931-5.795-.606-1.743-1.531-3.129-2.773-4.159-1.243-1.031-2.788-1.546-4.636-1.546-1.894 0-3.47.515-4.728 1.546-1.242 1.03-2.174 2.416-2.795 4.159-.606 1.727-.909 3.659-.909 5.795 0 2.121.303 4.046.909 5.773.621 1.727 1.553 3.106 2.795 4.136 1.258 1.015 2.834 1.523 4.728 1.523Zm45.914-8.773v-20.227h8.228V182h-7.978v-6.205h-.363c-.788 1.955-2.084 3.553-3.887 4.796-1.788 1.242-3.992 1.864-6.613 1.864-2.288 0-4.311-.508-6.069-1.523-1.742-1.03-3.106-2.523-4.09-4.477-.985-1.97-1.478-4.349-1.478-7.137v-22.227h8.228v20.954c0 2.213.606 3.97 1.818 5.273 1.212 1.303 2.803 1.955 4.772 1.955 1.213 0 2.387-.296 3.523-.887 1.137-.591 2.068-1.469 2.796-2.636.742-1.182 1.113-2.659 1.113-4.432ZM453.04 182v-34.909h7.977v5.818h.364c.636-2.015 1.727-3.568 3.272-4.659 1.561-1.106 3.341-1.659 5.341-1.659.455 0 .962.023 1.523.068.576.03 1.053.083 1.432.159v7.568c-.349-.121-.902-.227-1.659-.318a15.28 15.28 0 0 0-2.159-.159c-1.5 0-2.849.326-4.046.977a7.157 7.157 0 0 0-2.795 2.659c-.682 1.137-1.023 2.447-1.023 3.932V182h-8.227Zm39.165.682c-3.485 0-6.478-.765-8.978-2.296-2.485-1.53-4.401-3.644-5.75-6.341-1.333-2.712-2-5.833-2-9.363 0-3.546.682-6.674 2.046-9.387 1.363-2.727 3.288-4.848 5.772-6.363 2.5-1.53 5.455-2.296 8.864-2.296 2.833 0 5.341.523 7.523 1.569 2.197 1.03 3.947 2.492 5.25 4.386 1.303 1.879 2.045 4.076 2.227 6.591h-7.864c-.318-1.682-1.075-3.084-2.272-4.205-1.182-1.136-2.765-1.704-4.75-1.704-1.682 0-3.159.454-4.432 1.363-1.273.894-2.265 2.182-2.977 3.864-.697 1.682-1.046 3.697-1.046 6.045 0 2.379.349 4.425 1.046 6.137.697 1.697 1.674 3.007 2.931 3.932 1.273.909 2.766 1.363 4.478 1.363 1.212 0 2.295-.227 3.25-.682a6.535 6.535 0 0 0 2.432-2.022c.651-.879 1.098-1.947 1.34-3.205h7.864c-.197 2.47-.924 4.659-2.182 6.568-1.257 1.894-2.969 3.379-5.136 4.455-2.167 1.061-4.712 1.591-7.636 1.591Zm37.164 0c-3.5 0-6.522-.727-9.068-2.182-2.53-1.47-4.477-3.545-5.841-6.227-1.363-2.697-2.045-5.871-2.045-9.523 0-3.591.682-6.742 2.045-9.455 1.379-2.727 3.303-4.848 5.773-6.363 2.47-1.53 5.371-2.296 8.705-2.296 2.151 0 4.181.349 6.09 1.046a13.75 13.75 0 0 1 5.091 3.182c1.485 1.439 2.652 3.272 3.5 5.5.849 2.212 1.273 4.848 1.273 7.909v2.522h-28.614v-5.545h20.728c-.015-1.576-.356-2.977-1.023-4.205a7.444 7.444 0 0 0-2.795-2.931c-1.182-.712-2.561-1.069-4.137-1.069-1.682 0-3.159.41-4.432 1.228a8.455 8.455 0 0 0-2.977 3.182c-.697 1.303-1.053 2.734-1.068 4.295v4.841c0 2.03.371 3.773 1.114 5.227.742 1.44 1.78 2.546 3.113 3.318 1.333.758 2.894 1.137 4.682 1.137 1.197 0 2.28-.167 3.25-.5a7.213 7.213 0 0 0 2.523-1.523c.712-.667 1.25-1.492 1.613-2.477l7.682.863c-.485 2.031-1.409 3.803-2.773 5.319-1.348 1.5-3.075 2.666-5.181 3.5-2.106.818-4.516 1.227-7.228 1.227Zm80.313-23.955c0 5.015-.94 9.311-2.818 12.887-1.864 3.56-4.409 6.288-7.637 8.181-3.212 1.894-6.856 2.841-10.932 2.841-4.075 0-7.727-.947-10.954-2.841-3.212-1.909-5.758-4.643-7.636-8.204-1.864-3.576-2.796-7.864-2.796-12.864 0-5.015.932-9.303 2.796-12.863 1.878-3.576 4.424-6.311 7.636-8.205 3.227-1.894 6.879-2.841 10.954-2.841 4.076 0 7.72.947 10.932 2.841 3.228 1.894 5.773 4.629 7.637 8.205 1.878 3.56 2.818 7.848 2.818 12.863Zm-8.477 0c0-3.53-.553-6.507-1.66-8.932-1.09-2.439-2.606-4.28-4.545-5.522-1.939-1.258-4.174-1.887-6.705-1.887-2.53 0-4.765.629-6.704 1.887-1.939 1.242-3.462 3.083-4.568 5.522-1.091 2.425-1.637 5.402-1.637 8.932 0 3.531.546 6.515 1.637 8.955 1.106 2.424 2.629 4.265 4.568 5.523 1.939 1.242 4.174 1.863 6.704 1.863 2.531 0 4.766-.621 6.705-1.863 1.939-1.258 3.455-3.099 4.545-5.523 1.107-2.44 1.66-5.424 1.66-8.955ZM617.653 182v-46.545h8.228v17.409h.341c.424-.849 1.022-1.75 1.795-2.705.773-.97 1.818-1.795 3.136-2.477 1.319-.697 3-1.046 5.046-1.046 2.697 0 5.129.69 7.295 2.069 2.182 1.363 3.909 3.386 5.182 6.068 1.288 2.666 1.932 5.939 1.932 9.818 0 3.833-.629 7.091-1.886 9.773-1.258 2.681-2.97 4.727-5.137 6.136-2.166 1.409-4.621 2.114-7.363 2.114-2 0-3.659-.334-4.978-1-1.318-.667-2.378-1.47-3.182-2.409-.787-.955-1.401-1.857-1.84-2.705h-.478v5.5h-8.091Zm8.069-17.455c0 2.258.318 4.235.954 5.932.652 1.697 1.583 3.023 2.796 3.978 1.227.939 2.712 1.409 4.454 1.409 1.818 0 3.341-.485 4.568-1.455 1.228-.985 2.152-2.326 2.773-4.023.636-1.712.955-3.659.955-5.841 0-2.166-.311-4.09-.932-5.772-.621-1.682-1.546-3-2.773-3.955-1.227-.954-2.758-1.432-4.591-1.432-1.757 0-3.25.462-4.477 1.387-1.227.924-2.159 2.219-2.796 3.886-.621 1.667-.931 3.629-.931 5.886Zm59.471-8.227-7.5.818A6.034 6.034 0 0 0 676.58 155c-.516-.667-1.213-1.205-2.091-1.614-.879-.409-1.955-.613-3.228-.613-1.712 0-3.151.371-4.318 1.113-1.151.743-1.72 1.705-1.704 2.887-.016 1.015.356 1.841 1.113 2.477.773.636 2.046 1.159 3.818 1.568l5.955 1.273c3.303.712 5.758 1.841 7.364 3.386 1.621 1.546 2.439 3.568 2.454 6.068-.015 2.197-.659 4.137-1.932 5.819-1.257 1.666-3.007 2.969-5.25 3.909-2.242.939-4.818 1.409-7.727 1.409-4.273 0-7.712-.894-10.318-2.682-2.606-1.803-4.159-4.311-4.659-7.523l8.023-.772c.363 1.575 1.136 2.765 2.318 3.568 1.182.803 2.719 1.204 4.613 1.204 1.955 0 3.523-.401 4.705-1.204 1.197-.803 1.795-1.796 1.795-2.978 0-1-.386-1.825-1.159-2.477-.757-.651-1.939-1.151-3.545-1.5l-5.955-1.25c-3.348-.697-5.825-1.871-7.432-3.523-1.606-1.666-2.401-3.772-2.386-6.318-.015-2.151.568-4.015 1.75-5.591 1.197-1.591 2.856-2.818 4.977-3.681 2.137-.879 4.599-1.319 7.387-1.319 4.091 0 7.31.872 9.659 2.614 2.363 1.742 3.826 4.098 4.386 7.068Zm22.989 26.364c-3.5 0-6.523-.727-9.068-2.182-2.531-1.47-4.478-3.545-5.841-6.227-1.364-2.697-2.046-5.871-2.046-9.523 0-3.591.682-6.742 2.046-9.455 1.379-2.727 3.303-4.848 5.772-6.363 2.47-1.53 5.372-2.296 8.705-2.296 2.152 0 4.182.349 6.091 1.046a13.766 13.766 0 0 1 5.091 3.182c1.485 1.439 2.651 3.272 3.5 5.5.848 2.212 1.273 4.848 1.273 7.909v2.522h-28.614v-5.545h20.727c-.015-1.576-.356-2.977-1.023-4.205a7.43 7.43 0 0 0-2.795-2.931c-1.182-.712-2.561-1.069-4.136-1.069-1.682 0-3.159.41-4.432 1.228a8.447 8.447 0 0 0-2.977 3.182c-.697 1.303-1.053 2.734-1.069 4.295v4.841c0 2.03.372 3.773 1.114 5.227.742 1.44 1.78 2.546 3.114 3.318 1.333.758 2.894 1.137 4.681 1.137 1.197 0 2.281-.167 3.25-.5a7.213 7.213 0 0 0 2.523-1.523c.712-.667 1.25-1.492 1.614-2.477l7.682.863c-.485 2.031-1.409 3.803-2.773 5.319-1.349 1.5-3.076 2.666-5.182 3.5-2.106.818-4.515 1.227-7.227 1.227Zm22.483-.682v-34.909h7.977v5.818h.364c.636-2.015 1.727-3.568 3.272-4.659 1.561-1.106 3.341-1.659 5.341-1.659.455 0 .962.023 1.523.068.576.03 1.053.083 1.432.159v7.568c-.349-.121-.902-.227-1.659-.318a15.28 15.28 0 0 0-2.159-.159c-1.5 0-2.849.326-4.046.977a7.157 7.157 0 0 0-2.795 2.659c-.682 1.137-1.023 2.447-1.023 3.932V182h-8.227Zm57.619-34.909L775.852 182h-9.091l-12.431-34.909h8.772l8.023 25.932h.364l8.045-25.932h8.75Zm19.96 35.591c-3.5 0-6.522-.727-9.068-2.182-2.53-1.47-4.477-3.545-5.841-6.227-1.363-2.697-2.045-5.871-2.045-9.523 0-3.591.682-6.742 2.045-9.455 1.379-2.727 3.303-4.848 5.773-6.363 2.47-1.53 5.371-2.296 8.704-2.296 2.152 0 4.182.349 6.091 1.046a13.75 13.75 0 0 1 5.091 3.182c1.485 1.439 2.652 3.272 3.5 5.5.849 2.212 1.273 4.848 1.273 7.909v2.522h-28.614v-5.545h20.728c-.015-1.576-.356-2.977-1.023-4.205a7.44 7.44 0 0 0-2.796-2.931c-1.181-.712-2.56-1.069-4.136-1.069-1.682 0-3.159.41-4.432 1.228a8.455 8.455 0 0 0-2.977 3.182c-.697 1.303-1.053 2.734-1.068 4.295v4.841c0 2.03.371 3.773 1.113 5.227.743 1.44 1.781 2.546 3.114 3.318 1.333.758 2.894 1.137 4.682 1.137 1.197 0 2.28-.167 3.25-.5a7.213 7.213 0 0 0 2.523-1.523c.712-.667 1.25-1.492 1.613-2.477l7.682.863c-.485 2.031-1.409 3.803-2.773 5.319-1.348 1.5-3.075 2.666-5.181 3.5-2.106.818-4.516 1.227-7.228 1.227Zm22.483-.682v-34.909h7.978v5.818h.363c.637-2.015 1.727-3.568 3.273-4.659 1.561-1.106 3.341-1.659 5.341-1.659.454 0 .962.023 1.523.068.575.03 1.053.083 1.431.159v7.568c-.348-.121-.901-.227-1.659-.318a15.269 15.269 0 0 0-2.159-.159c-1.5 0-2.848.326-4.045.977a7.16 7.16 0 0 0-2.796 2.659c-.682 1.137-1.022 2.447-1.022 3.932V182h-8.228Z"/><defs><clipPath id="a"><path fill="#fff" d="M28 94h129v129H28z"/></clipPath></defs></svg>