<svg xmlns="http://www.w3.org/2000/svg" width="295" height="102" fill="none"><path fill="url(#a)" d="M82.254 69.54c-2.448 0-4.626-.306-6.534-.918-1.908-.648-3.474-1.602-4.698-2.862-1.224-1.26-2.07-2.79-2.538-4.59-.468-1.836-.504-3.924-.108-6.264.252-1.476.558-3.06.918-4.752.396-1.692.774-3.312 1.134-4.86.792-3.096 1.98-5.724 3.564-7.884a15.78 15.78 0 0 1 6.156-5.022c2.52-1.152 5.49-1.728 8.91-1.728 2.34 0 4.464.306 6.372.918 1.944.576 3.564 1.44 4.86 2.592 1.332 1.116 2.268 2.466 2.808 4.05.576 1.548.684 3.294.324 5.238-.036.324-.18.594-.432.81a1.099 1.099 0 0 1-.81.324h-6.264c-.432 0-.774-.108-1.026-.324-.216-.216-.342-.576-.378-1.08.108-2.052-.414-3.492-1.566-4.32-1.116-.828-2.61-1.242-4.482-1.242-2.232 0-4.158.612-5.778 1.836-1.62 1.224-2.772 3.258-3.456 6.102a118.912 118.912 0 0 0-1.944 9.072c-.504 2.844-.252 4.878.756 6.102 1.008 1.224 2.61 1.836 4.806 1.836 1.872 0 3.546-.396 5.022-1.188 1.512-.828 2.736-2.286 3.672-4.374.288-.54.558-.9.81-1.08.288-.216.648-.324 1.08-.324h6.21c.324 0 .576.108.756.324.216.216.288.486.216.81a18.598 18.598 0 0 1-2.268 5.184 15.727 15.727 0 0 1-3.834 4.05c-1.512 1.152-3.294 2.034-5.346 2.646-2.016.612-4.32.918-6.912.918Zm31.773 0c-1.8 0-3.366-.288-4.698-.864-1.296-.612-2.322-1.476-3.078-2.592-.756-1.152-1.26-2.502-1.512-4.05-.216-1.584-.162-3.33.162-5.238.108-.684.216-1.296.324-1.836.144-.576.288-1.188.432-1.836.468-1.872 1.098-3.582 1.89-5.13.792-1.548 1.764-2.88 2.916-3.996a11.92 11.92 0 0 1 3.996-2.646c1.548-.648 3.276-.972 5.184-.972 2.232 0 3.924.342 5.076 1.026 1.152.648 2.052 1.458 2.7 2.43l.324-1.566c.072-.396.252-.72.54-.972.324-.252.666-.378 1.026-.378h5.13c.396 0 .684.126.864.378.216.252.288.576.216.972l-5.4 25.38c-.072.396-.252.72-.54.972-.288.252-.63.378-1.026.378h-5.13c-.396 0-.702-.126-.918-.378-.18-.252-.234-.576-.162-.972l.378-1.836a16.043 16.043 0 0 1-3.564 2.7c-1.296.684-3.006 1.026-5.13 1.026Zm3.078-6.48c1.368 0 2.52-.306 3.456-.918a7.155 7.155 0 0 0 2.322-2.322 10.377 10.377 0 0 0 1.35-3.024c.18-.684.342-1.368.486-2.052.144-.684.27-1.35.378-1.998.18-1.008.18-1.944 0-2.808a3.777 3.777 0 0 0-1.296-2.214c-.648-.576-1.62-.864-2.916-.864-1.26 0-2.34.306-3.24.918-.9.576-1.638 1.35-2.214 2.322a13.258 13.258 0 0 0-1.35 3.186c-.144.54-.288 1.098-.432 1.674a15.183 15.183 0 0 0-.324 1.674c-.144 1.152-.18 2.214-.108 3.186.108.972.468 1.764 1.08 2.376.612.576 1.548.864 2.808.864ZM150.488 69c-2.448 0-4.41-.36-5.886-1.08-1.476-.756-2.466-1.908-2.97-3.456-.468-1.548-.468-3.492 0-5.832l2.43-11.34h-4.212c-.396 0-.702-.126-.918-.378-.18-.252-.234-.576-.162-.972l.756-3.672c.072-.396.27-.72.594-.972.324-.252.666-.378 1.026-.378h4.266l1.89-8.91c.072-.396.252-.72.54-.972a1.717 1.717 0 0 1 1.08-.378h5.292c.36 0 .648.126.864.378.216.252.288.576.216.972l-1.944 8.91h6.75c.396 0 .684.126.864.378.18.252.234.576.162.972l-.756 3.672c-.072.396-.27.72-.594.972-.288.252-.63.378-1.026.378H152l-2.268 10.692c-.18.9-.288 1.692-.324 2.376 0 .648.18 1.152.54 1.512.396.324 1.062.486 1.998.486h4.104c.36 0 .63.126.81.378.216.252.288.558.216.918l-.864 3.996c-.072.396-.252.72-.54.972-.288.252-.63.378-1.026.378h-4.158Zm20.703.54c-1.8 0-3.366-.288-4.698-.864-1.296-.612-2.322-1.476-3.078-2.592-.756-1.152-1.26-2.502-1.512-4.05-.216-1.584-.162-3.33.162-5.238.108-.684.216-1.296.324-1.836.144-.576.288-1.188.432-1.836.468-1.872 1.098-3.582 1.89-5.13.792-1.548 1.764-2.88 2.916-3.996a11.92 11.92 0 0 1 3.996-2.646c1.548-.648 3.276-.972 5.184-.972 2.232 0 3.924.342 5.076 1.026 1.152.648 2.052 1.458 2.7 2.43l.324-1.566c.072-.396.252-.72.54-.972.324-.252.666-.378 1.026-.378h5.13c.396 0 .684.126.864.378.216.252.288.576.216.972l-5.4 25.38c-.072.396-.252.72-.54.972-.288.252-.63.378-1.026.378h-5.13c-.396 0-.702-.126-.918-.378-.18-.252-.234-.576-.162-.972l.378-1.836a16.043 16.043 0 0 1-3.564 2.7c-1.296.684-3.006 1.026-5.13 1.026Zm3.078-6.48c1.368 0 2.52-.306 3.456-.918a7.155 7.155 0 0 0 2.322-2.322 10.377 10.377 0 0 0 1.35-3.024c.18-.684.342-1.368.486-2.052.144-.684.27-1.35.378-1.998.18-1.008.18-1.944 0-2.808a3.777 3.777 0 0 0-1.296-2.214c-.648-.576-1.62-.864-2.916-.864-1.26 0-2.34.306-3.24.918-.9.576-1.638 1.35-2.214 2.322a13.258 13.258 0 0 0-1.35 3.186c-.144.54-.288 1.098-.432 1.674a15.183 15.183 0 0 0-.324 1.674c-.144 1.152-.18 2.214-.108 3.186.108.972.468 1.764 1.08 2.376.612.576 1.548.864 2.808.864ZM195.178 69c-.36 0-.648-.126-.864-.378-.216-.252-.288-.576-.216-.972l7.614-35.64c.072-.396.252-.72.54-.972.324-.252.666-.378 1.026-.378h5.4c.396 0 .684.126.864.378.216.252.288.576.216.972l-7.614 35.64c-.072.396-.252.72-.54.972-.288.252-.63.378-1.026.378h-5.4Zm16.49 10.26c-.432 0-.72-.198-.864-.594-.144-.36-.072-.738.216-1.134l6.588-10.368-5.292-24.678a1.42 1.42 0 0 1 .216-1.08c.252-.324.648-.486 1.188-.486h4.914c.432 0 .738.108.918.324.216.216.342.468.378.756l3.294 16.74L233.808 42c.18-.288.396-.54.648-.756.288-.216.666-.324 1.134-.324h5.508c.396 0 .684.162.864.486.18.324.144.702-.108 1.134L218.85 78.18c-.144.288-.36.54-.648.756-.288.216-.666.324-1.134.324h-5.4ZM240.71 69c-.396 0-.702-.126-.918-.378-.216-.252-.288-.576-.216-.972l.81-3.618c.072-.324.18-.594.324-.81.144-.252.324-.468.54-.648l16.47-15.39h-11.988c-.36 0-.648-.126-.864-.378-.18-.252-.234-.558-.162-.918l.756-3.618c.072-.396.252-.72.54-.972a1.717 1.717 0 0 1 1.08-.378h21.06c.396 0 .684.126.864.378.18.252.234.576.162.972l-.756 3.888c-.108.504-.396.954-.864 1.35l-16.146 15.228h13.23c.396 0 .684.126.864.378.216.252.27.558.162.918l-.756 3.618c-.072.396-.27.72-.594.972a1.438 1.438 0 0 1-.972.378H240.71Zm42.932 0c-2.448 0-4.41-.36-5.886-1.08-1.476-.756-2.466-1.908-2.97-3.456-.468-1.548-.468-3.492 0-5.832l2.43-11.34h-4.212c-.396 0-.702-.126-.918-.378-.18-.252-.234-.576-.162-.972l.756-3.672c.072-.396.27-.72.594-.972.324-.252.666-.378 1.026-.378h4.266l1.89-8.91c.072-.396.252-.72.54-.972a1.717 1.717 0 0 1 1.08-.378h5.292c.36 0 .648.126.864.378.216.252.288.576.216.972l-1.944 8.91h6.75c.396 0 .684.126.864.378.18.252.234.576.162.972l-.756 3.672c-.072.396-.27.72-.594.972-.288.252-.63.378-1.026.378h-6.75l-2.268 10.692c-.18.9-.288 1.692-.324 2.376 0 .648.18 1.152.54 1.512.396.324 1.062.486 1.998.486h4.104c.36 0 .63.126.81.378.216.252.288.558.216.918l-.864 3.996c-.072.396-.252.72-.54.972-.288.252-.63.378-1.026.378h-4.158Z"/><path fill="url(#b)" d="M23.417 66.75a2 2 0 0 0-2-2H3.737a2 2 0 0 1-1.79-2.894L28.795 8.16c.943-1.888 3.788-1.216 3.788.894V35.25a2 2 0 0 0 2 2h17.68a2 2 0 0 1 1.79 2.894L27.206 93.84c-.944 1.888-3.79 1.216-3.79-.894V66.75Z"/><defs><radialGradient id="b" cx="0" cy="0" r="1" gradientTransform="rotate(54.321 -2.64 -25.549) scale(151.653 82.7196)" gradientUnits="userSpaceOnUse"><stop stop-color="#865CBB"/><stop offset="1" stop-color="#1E1E1E"/></radialGradient><linearGradient id="a" x1="15.5" x2="425.99" y1="91.5" y2="18.944" gradientUnits="userSpaceOnUse"><stop stop-color="#1E1E1E"/><stop offset="1" stop-color="#865CBB"/></linearGradient></defs></svg>