<svg width="300" height="300" fill="none" xmlns="http://www.w3.org/2000/svg"><g clip-path="url(#a)"><circle cx="150" cy="150" r="150" fill="#1E1E1E"/><rect width="300" height="300" rx="150" fill="url(#b)"/><path d="M143.375 173.875a2 2 0 0 0-2-2h-30.389c-1.487 0-2.454-1.565-1.789-2.894l44.639-89.278c.944-1.888 3.789-1.216 3.789.894v46.528a2 2 0 0 0 2 2h30.389c1.487 0 2.454 1.565 1.789 2.894l-44.639 89.278c-.944 1.888-3.789 1.216-3.789-.894v-46.528Z" fill="#E4E4E4"/></g><defs><radialGradient id="b" cx="0" cy="0" r="1" gradientUnits="userSpaceOnUse" gradientTransform="rotate(52.606 112.28 -55.5) scale(579.624 1159.25)"><stop stop-color="#865CBB"/><stop offset="1" stop-opacity="0"/></radialGradient><clipPath id="a"><path fill="#fff" d="M0 0h300v300H0z"/></clipPath></defs></svg>